<svg width="32" height="32" viewBox="0 0 32 32" fill="none" xmlns="http://www.w3.org/2000/svg">
<path d="M30.0781 6.06912C28.7344 5.75039 27.3844 6.5816 27.0657 7.91905L25.1407 16H24.447L27.1719 5.10666C27.5094 3.76921 26.6907 2.41301 25.3532 2.07553C24.0158 1.73804 22.6596 2.55676 22.3221 3.89421L19.2972 16H18.3535L15.1224 1.94428C14.8099 0.594334 13.4724 -0.243134 12.1225 0.0631041C10.7788 0.369342 9.93508 1.71304 10.2476 3.05674L13.2225 15.9937H12.61L10.4351 6.44411C10.1288 5.10041 8.79137 4.25669 7.44142 4.56293C6.09772 4.86917 5.25401 6.20662 5.56024 7.55657L7.99765 18.2812V23.2435L4.2103 19.6811C3.20408 18.7374 1.62289 18.7811 0.679181 19.7874C-0.264533 20.7936 -0.220785 22.3748 0.785427 23.3185L9.14136 31.1869C9.69759 31.7119 10.4351 31.9994 11.1975 31.9994H24.7408C26.072 31.9994 27.2407 31.1244 27.6157 29.8495L29.2531 24.3309C29.4156 23.7747 29.5031 23.206 29.5031 22.6247V19.9998C29.5031 19.5311 29.5593 19.0624 29.6656 18.6124L31.9342 9.08151C32.2467 7.73781 31.4155 6.38786 30.0781 6.06912Z" fill="#B74AE9"/>
</svg>
