<svg width="32" height="32" viewBox="0 0 32 32" fill="none" xmlns="http://www.w3.org/2000/svg">
<path fill-rule="evenodd" clip-rule="evenodd" d="M28.6454 5.29154L28.6476 5.29207C30.9898 5.85026 32.4281 8.20287 31.8856 10.5355L31.8831 10.5467L29.9282 18.759C29.9281 18.7596 29.9279 18.7602 29.9278 18.7608C29.8748 18.9859 29.8472 19.2193 29.8472 19.448V21.7108C29.8472 22.4364 29.7376 23.1349 29.5431 23.8005L29.5405 23.8094L28.1304 28.5617C28.1301 28.5626 28.1299 28.5635 28.1296 28.5645C27.5291 30.6016 25.6601 31.9992 23.5349 31.9992H11.8598C10.6496 31.9992 9.46944 31.5431 8.57318 30.6975C8.57295 30.6973 8.57341 30.6977 8.57318 30.6975L1.37419 23.9185C1.37372 23.918 1.37324 23.9176 1.37277 23.9171C-0.390453 22.262 -0.456521 19.5028 1.18262 17.7551C2.62359 16.2187 4.90236 15.9696 6.62152 17.013L4.84813 9.21011C4.31491 6.85961 5.78457 4.52355 8.13139 3.98869L8.13355 3.9882C8.35713 3.93748 8.58057 3.90488 8.80233 3.88944C8.99656 2.09128 10.3084 0.533087 12.1668 0.10954L12.1689 0.109048C14.5166 -0.423532 16.8496 1.03683 17.3932 3.3852L17.394 3.38847L18.5079 8.2344L19.3102 5.0239C19.8962 2.70146 22.2559 1.26406 24.6029 1.85628C26.2619 2.27492 27.4693 3.59866 27.8078 5.17628C28.0852 5.18733 28.3654 5.22512 28.6454 5.29154ZM25.6308 6.60906C25.7126 6.28453 25.7156 5.95873 25.6518 5.65158C25.489 4.86751 24.8914 4.20506 24.0629 3.99602C22.91 3.70508 21.7408 4.41087 21.4499 5.56384L18.8422 15.9998H18.0287L15.2433 3.88287C14.9739 2.71913 13.8209 1.99718 12.6572 2.26117C11.6781 2.48432 11.0069 3.34642 10.9853 4.3074C10.9813 4.48335 10.9992 4.66262 11.0408 4.84189L11.6869 7.65161L13.6054 15.9944H13.0774L11.2025 7.76202C10.972 6.75072 10.0639 6.06795 9.06266 6.08656C8.91706 6.08927 8.7695 6.10681 8.62176 6.14032C7.4634 6.40432 6.73606 7.55729 7.00006 8.72104L9.10127 17.9663V22.2442L5.83631 19.1732C4.96889 18.3596 3.6058 18.3974 2.79226 19.2648C1.97871 20.1322 2.01643 21.4953 2.88385 22.3088L10.0872 29.092C10.5667 29.5445 11.2025 29.7924 11.8598 29.7924H23.5349C24.6825 29.7924 25.69 29.0381 26.0133 27.939L27.4249 23.1816C27.5649 22.7021 27.6404 22.2119 27.6404 21.7108V19.448C27.6404 19.0439 27.6889 18.6398 27.7805 18.2519L29.7362 10.0356C30.0056 8.87728 29.289 7.71354 28.136 7.43876C27.9944 7.40515 27.8526 7.38637 27.7124 7.38141C26.7063 7.34582 25.7803 8.02159 25.5392 9.03352L23.8798 15.9998H23.2817L25.0533 8.91778L25.6308 6.60906Z" fill="#B74AE9"/>
</svg>
